<svg xmlns="http://www.w3.org/2000/svg" viewBox="0 0 141.85 116.06"><defs><style>.cls-1{fill:#f39800;}.cls-2{fill:#e61673;}.cls-3{fill:#e60012;}.cls-4{fill:#601986;}.cls-5{fill:#fff100;}.cls-6{fill:#fff;}.cls-7{fill:#faee00;}.cls-8{fill:#231815;}.cls-9{fill:none;stroke:#fff;stroke-miterlimit:10;}</style></defs><title>자산 1</title><g id="레이어_2" data-name="레이어 2"><g id="레이어_1-2" data-name="레이어 1"><path class="cls-1" d="M102.34,23.69a8.85,8.85,0,1,0-11.09-5.22q-2.31-.89-4.65-1.63L70.32,77l5.35-.07s0,.07,0,.11V88.58a3.42,3.42,0,0,0,6.83,0V77c0-.07,0-.14,0-.21l5.13-.09c0,.1,0,.2,0,.3V88.58a3.42,3.42,0,0,0,6.83,0V77a3.34,3.34,0,0,0,0-.44l1.34,0,12.38-49.32C106.21,26,104.3,24.79,102.34,23.69Z"/><path class="cls-2" d="M62.17,12.67v-5c0-4.17-4.92-4.29-6.21-4.29H48.25c-1,0-48.25,7.29-48.25,42,0,8.38.88,19.25.88,23,.6,3.77,2.49,4,4.63,5,1.19.38,22.08,4.42,36.25,4h.39L63.2,12.8Z"/><path class="cls-3" d="M81.54,15.42a8.84,8.84,0,1,0-13.42-2L63.2,12.8,42.14,77.32h.28V88.58a3.42,3.42,0,0,0,6.83,0V77.22l5.25-.06V88.58a3.42,3.42,0,0,0,6.83,0V77.08l9-.11L86.59,16.84Q84.08,16,81.54,15.42Z"/><path class="cls-4" d="M136.11,58.73l.27-.27a74.84,74.84,0,0,0-10.64-15.8L111.33,76c1.16-.06,2.15-.13,2.92-.19,6.16-.22,7.75,1.52,7.75,1.52l.28-.43c7.32,7,11.58,15.84,5.55,24.07-2.2,3-6,6.33-9.45,6.33-5.13,0-9.83-.44-11.35-2-3.37-3.54-6.14-10.88-1.74-16.08,3-3.53,8.8-5,11.52-3a4.54,4.54,0,0,1,1.86,5.28A3.3,3.3,0,0,1,115,93.6a3.5,3.5,0,0,0-.69,7,10.29,10.29,0,0,0,10.91-6.49A11.54,11.54,0,0,0,121,80.66c-5.74-4.34-15.59-2.45-21.08,4-6.78,8-4,19.08,2,25.42a21.1,21.1,0,0,0,14.54,5.94q.93,0,1.88-.06c7-.45,12.62-4,17.29-8.34C144.26,99.62,143.43,73.48,136.11,58.73Z"/><path class="cls-5" d="M118.6,35.36a8.85,8.85,0,1,0-7.18-5.84c-1.09-.8-2.2-1.56-3.33-2.31L95.71,76.53c6.38-.14,11.92-.31,15.62-.51l14.41-33.36A85.23,85.23,0,0,0,118.6,35.36Z"/><circle class="cls-6" cx="25.75" cy="37.39" r="17.78"/><circle class="cls-7" cx="25.75" cy="37.39" r="11.92"/><circle class="cls-8" cx="25.75" cy="37.39" r="6.51"/><circle class="cls-6" cx="22.54" cy="35.35" r="2.67"/><path class="cls-9" d="M.92,67.08c9.25,3.92,32,3.92,36.75-1.75"/></g></g></svg>